# xmcd
#
# Track frame offsets: 
#        200
#        28677
#        49602
#        71882
#        97202
#        118527
#        120122
#        142230
#        164600
#        188312
#        206972
#
# Disc length: 3082 seconds
#
# Revision: 3
# Processed by: cddbd v1.5.2PL0 Copyright (c) Steve Scherf et al.
# Submitted via: ExactAudioCopy v1.0b3
#
DISCID=a10c080b
DTITLE=Father Mc - This Is for the Players
DYEAR=1995
DGENRE=R&B
TTITLE0=Treat Me Right
TTITLE1=This Is for the Players
TTITLE2=Sexual Playground
TTITLE3=You Can Do Me Right
TTITLE4=High Rollers
TTITLE5=Sexual Healing
TTITLE6=I AM What You Want
TTITLE7=Funhing With Father
TTITLE8=Hey...How Ya Doin
TTITLE9=I Want Your Lovin
TTITLE10=Life
EXTD=
EXTT0=
EXTT1=
EXTT2=
EXTT3=
EXTT4=
EXTT5=
EXTT6=
EXTT7=
EXTT8=
EXTT9=
EXTT10=
PLAYORDER=
